<?xml version="1.0" encoding="UTF-8"?>
<!DOCTYPE svg PUBLIC "-//W3C//DTD SVG 1.1//EN" "http://www.w3.org/Graphics/SVG/1.1/DTD/svg11.dtd">
<!-- Creator: CorelDRAW X8 -->
<svg xmlns="http://www.w3.org/2000/svg" xml:space="preserve" width="6.91741in" height="1.50113in" version="1.1" style="shape-rendering:geometricPrecision; text-rendering:geometricPrecision; image-rendering:optimizeQuality; fill-rule:evenodd; clip-rule:evenodd"
viewBox="0 0 6368 1382"
 xmlns:xlink="http://www.w3.org/1999/xlink">
 <defs>
  <style type="text/css">
   <![CDATA[
    .fil2 {fill:#1A8DFF}
    .fil1 {fill:#4DA6FF}
    .fil0 {fill:#4DA6FF}
    .fil3 {fill:#1E1A16;fill-rule:nonzero}
   ]]>
  </style>
 </defs>
 <g id="Layer_x0020_1">
  <metadata id="CorelCorpID_0Corel-Layer"/>
  <g id="_1075680852128">
   <path class="fil0" d="M728 0c242,0 438,196 438,438 0,121 -49,231 -128,310l0 0 0 -1c-25,25 -59,40 -97,40 -75,0 -136,-61 -136,-136 0,-37 15,-72 40,-96l0 -1c29,-29 48,-70 48,-116 0,-91 -74,-165 -165,-165 -91,0 -164,74 -164,165 0,46 18,87 48,116l-1 1c25,25 41,59 41,97 0,76 -61,137 -136,137 -38,0 -73,-16 -98,-41l0 0c-79,-79 -128,-189 -128,-310 0,-242 196,-438 438,-438z"/>
   <path class="fil1" d="M1399 1156c-123,211 -391,285 -600,167 -104,-60 -174,-156 -202,-264l0 0 1 -1c-9,-33 -5,-70 14,-103 38,-66 122,-89 186,-52l2 1c31,18 53,48 61,81l1 0c10,41 36,77 76,99 78,45 179,17 225,-63 46,-79 20,-179 -59,-224 -39,-22 -84,-26 -124,-15l-1 -1c-34,10 -71,7 -104,-12l0 0c-65,-37 -87,-120 -49,-186 20,-33 51,-55 85,-64l0 0c108,-31 227,-20 332,40 208,119 278,386 156,597z"/>
   <path class="fil2" d="M979 782l0 -1c-34,10 -71,7 -104,-12l0 0c-65,-37 -87,-120 -49,-186 20,-33 51,-55 85,-64l0 0c80,-23 166,-22 247,3 -17,87 -60,165 -120,226l0 0 0 -1c-16,16 -36,28 -59,35z"/>
   <path class="fil0" d="M62 1165c124,209 392,279 600,157 104,-62 173,-159 201,-268l0 0 -1 0c9,-34 4,-71 -15,-103 -38,-65 -122,-87 -186,-49 -33,19 -54,50 -63,83l0 0c-11,41 -37,78 -76,101 -78,46 -179,19 -225,-59 -47,-79 -21,-179 57,-225 39,-23 84,-28 125,-18l0 -1c34,10 72,6 104,-14 65,-38 86,-121 48,-186 -20,-33 -51,-55 -85,-63l0 0c-109,-29 -228,-15 -332,46 -208,122 -276,390 -152,599z"/>
   <path class="fil2" d="M729 1273c67,-59 113,-136 134,-219l0 0 -1 0c6,-21 6,-44 0,-66 0,-1 0,-2 0,-3l-1 0c-8,-33 -30,-63 -61,-81l-2 -1c-64,-37 -148,-14 -186,52 -19,33 -23,70 -14,103l-1 1 0 0c21,81 67,157 132,214z"/>
   <path class="fil2" d="M479 784l0 -1c34,10 72,6 104,-14 65,-38 86,-121 48,-186 -20,-33 -51,-55 -85,-63l0 0c-80,-21 -166,-20 -247,7 18,85 60,162 119,221l0 0c17,17 38,29 61,36z"/>
  </g>
  <path class="fil3" d="M1851 161l-184 0 0 535 197 0c27,0 47,0 71,-2 79,-8 151,-50 151,-144 0,-73 -36,-116 -111,-131 57,-19 88,-64 88,-120 0,-78 -51,-127 -145,-136 -26,-2 -42,-2 -67,-2zm-78 444l0 -135 95 0c68,0 107,19 107,69 0,45 -40,66 -98,66l-104 0zm0 -223l0 -130 88 0c59,0 93,20 93,67 0,49 -46,63 -95,63l-86 0z"/>
  <path id="1" class="fil3" d="M2335 299c-133,0 -193,80 -193,206 0,134 64,202 189,202 100,0 164,-47 178,-129l-103 0c-10,29 -33,44 -73,44 -48,0 -78,-22 -84,-88l265 0c0,-12 1,-27 1,-38 0,-114 -53,-197 -180,-197zm-86 162c7,-58 35,-79 81,-79 44,0 74,22 79,79l-160 0z"/>
  <path id="2" class="fil3" d="M2798 299c-58,0 -101,24 -108,84l-5 -74 -96 0 0 387 105 0 0 -168c0,-109 43,-152 136,-142l0 -85c-9,-2 -18,-2 -32,-2z"/>
  <polygon id="3" class="fil3" points="3253,309 3140,309 2983,484 2983,161 2878,161 2878,696 2983,696 2983,575 3033,525 3135,696 3261,696 3115,459 "/>
  <path id="4" class="fil3" d="M3380 502c0,-87 33,-119 91,-119 56,0 89,32 89,119 0,89 -33,120 -89,120 -58,0 -91,-31 -91,-120zm-110 0c0,133 70,205 201,205 130,0 199,-72 199,-205 0,-132 -69,-203 -199,-203 -131,0 -201,71 -201,203z"/>
  <path id="5" class="fil3" d="M3960 299c-57,0 -113,9 -127,64l-3 -54 -97 0 0 387 105 0 0 -209c0,-69 23,-102 74,-102 56,0 64,38 64,94l0 217 105 0 0 -208c0,-69 24,-103 74,-103 56,0 65,39 65,95l0 216 105 0 0 -231c0,-26 -1,-45 -4,-65 -8,-59 -49,-101 -130,-101 -49,0 -108,9 -123,64 -16,-39 -51,-64 -108,-64z"/>
  <path id="6" class="fil3" d="M4515 836l0 -187c22,46 69,58 118,58 111,0 175,-71 175,-206 0,-124 -51,-202 -169,-202 -59,0 -109,14 -127,73l-6 -63 -96 0 0 527 105 0zm0 -323l0 -14c0,-86 38,-116 89,-116 63,0 89,49 89,118 0,77 -29,121 -91,121 -43,0 -87,-25 -87,-109z"/>
  <path id="7" class="fil3" d="M5053 299c-132,0 -193,80 -193,206 0,134 65,202 189,202 101,0 164,-47 178,-129l-102 0c-10,29 -33,44 -73,44 -49,0 -78,-22 -85,-88l265 0c1,-12 2,-27 2,-38 0,-114 -54,-197 -181,-197zm-85 162c7,-58 34,-79 81,-79 44,0 73,22 79,79l-160 0z"/>
  <path id="8" class="fil3" d="M5435 562l0 -169 87 0 0 -83 -87 0 0 -113 -105 0 0 113 -56 0 0 83 56 0 0 172c0,22 0,38 1,59 5,50 30,81 107,81 35,0 55,-2 80,-5l0 -79c-70,4 -83,-2 -83,-59z"/>
  <path id="9" class="fil3" d="M5756 299c-132,0 -193,80 -193,206 0,134 65,202 189,202 101,0 164,-47 178,-129l-102 0c-10,29 -33,44 -73,44 -49,0 -78,-22 -85,-88l265 0c1,-12 2,-27 2,-38 0,-114 -54,-197 -181,-197zm-85 162c7,-58 35,-79 81,-79 44,0 73,22 79,79l-160 0z"/>
  <path id="10" class="fil3" d="M6227 299c-64,0 -110,16 -122,73l-5 -63 -96 0 0 387 105 0 0 -205c0,-73 34,-106 82,-105 58,0 72,33 72,84l0 226 105 0 0 -224c0,-32 -1,-50 -3,-70 -10,-71 -57,-103 -138,-103z"/>
  <path class="fil3" d="M5714 1303c35,0 63,-28 63,-62 0,-35 -28,-63 -63,-63 -34,0 -61,28 -61,63 0,34 27,62 61,62z"/>
  <path id="1" class="fil3" d="M5940 940l-96 0 0 354 96 0 0 -354zm-101 -111c0,30 24,52 52,52 30,0 53,-22 53,-52 0,-29 -23,-52 -53,-52 -28,0 -52,23 -52,52z"/>
  <path id="2" class="fil3" d="M6364 804l-96 0 0 179c-20,-42 -63,-53 -108,-53 -101,0 -159,65 -159,188 0,113 47,185 154,185 53,0 98,-13 115,-66l6 57 88 0 0 -490zm-259 315c0,-71 27,-112 84,-112 39,0 79,23 79,100l0 13c0,78 -33,105 -81,105 -58,0 -82,-44 -82,-106z"/>
 </g>
</svg>
