<?xml version="1.0" encoding="UTF-8"?>
<!DOCTYPE svg PUBLIC "-//W3C//DTD SVG 1.1//EN" "http://www.w3.org/Graphics/SVG/1.1/DTD/svg11.dtd">
<!-- Creator: CorelDRAW X8 -->
<svg xmlns="http://www.w3.org/2000/svg" xml:space="preserve" width="1.58507in" height="1.50113in" version="1.1" style="shape-rendering:geometricPrecision; text-rendering:geometricPrecision; image-rendering:optimizeQuality; fill-rule:evenodd; clip-rule:evenodd"
viewBox="0 0 334 317"
 xmlns:xlink="http://www.w3.org/1999/xlink">
 <defs>
  <style type="text/css">
   <![CDATA[
    .fil2 {fill:#1A8DFF}
    .fil1 {fill:#4DA6FF}
    .fil0 {fill:#4DA6FF}
   ]]>
  </style>
 </defs>
 <g id="Layer_x0020_1">
  <metadata id="CorelCorpID_0Corel-Layer"/>
  <g id="_1075680863552">
   <path class="fil0" d="M167 0c55,0 100,45 100,100 0,28 -11,53 -29,71l0 0 0 0c-6,6 -14,9 -22,9 -18,0 -32,-14 -32,-31 0,-8 4,-16 10,-22l0 0c6,-7 11,-16 11,-27 0,-20 -17,-37 -38,-37 -21,0 -38,17 -38,37 0,11 4,20 11,27l0 0c6,6 9,14 9,22 0,18 -14,32 -31,32 -9,0 -16,-4 -22,-10l0 0c-18,-18 -30,-43 -30,-71 0,-55 45,-100 101,-100z"/>
   <path class="fil1" d="M320 265c-28,48 -89,65 -137,38 -24,-14 -40,-36 -46,-60l0 0 0 0c-2,-8 -1,-17 3,-24 9,-15 28,-21 43,-12l0 0c8,4 12,11 14,19l0 0c3,9 9,17 18,22 18,11 41,4 51,-14 11,-18 5,-41 -13,-51 -9,-5 -19,-6 -29,-4l0 0c-7,2 -16,1 -24,-3l0 0c-14,-8 -19,-27 -11,-42 5,-8 12,-13 20,-15l0 0c25,-7 52,-5 76,9 48,27 64,88 35,137z"/>
   <path class="fil2" d="M224 179l0 0c-7,2 -16,1 -24,-3l0 0c-14,-8 -19,-27 -11,-42 5,-8 12,-13 20,-15l0 0c18,-5 38,-5 56,1 -3,20 -13,38 -27,51l0 0 0 0c-4,4 -8,7 -14,8z"/>
   <path class="fil0" d="M14 267c29,48 90,64 138,36 24,-14 39,-37 46,-61l0 0 0 0c2,-8 1,-17 -4,-24 -9,-15 -28,-20 -43,-11 -7,4 -12,11 -14,19l0 0c-2,9 -8,18 -17,23 -18,10 -41,4 -52,-14 -11,-18 -5,-41 13,-51 9,-6 19,-7 29,-4l0 -1c8,3 16,2 24,-3 14,-8 19,-28 10,-42 -4,-8 -11,-13 -19,-15l0 0c-25,-6 -52,-3 -76,11 -48,28 -63,89 -35,137z"/>
   <path class="fil2" d="M167 292c15,-14 26,-31 31,-50l0 0 0 0c1,-5 1,-11 0,-16 0,0 -1,0 -1,0l0 0c-2,-8 -6,-15 -14,-19l0 0c-15,-9 -34,-3 -43,12 -4,7 -5,16 -3,24l0 0 0 0c5,18 15,36 30,49z"/>
   <path class="fil2" d="M110 180l0 -1c8,3 16,2 24,-3 14,-8 19,-28 10,-42 -4,-8 -11,-13 -19,-15l0 0c-18,-5 -38,-4 -56,2 4,19 13,37 27,50l0 0c4,4 8,7 14,9z"/>
  </g>
 </g>
</svg>
