<?xml version="1.0" encoding="UTF-8"?>
<!DOCTYPE svg PUBLIC "-//W3C//DTD SVG 1.1//EN" "http://www.w3.org/Graphics/SVG/1.1/DTD/svg11.dtd">
<!-- Creator: CorelDRAW X8 -->
<svg xmlns="http://www.w3.org/2000/svg" xml:space="preserve" width="6.12712in" height="0.778343in" version="1.1" style="shape-rendering:geometricPrecision; text-rendering:geometricPrecision; image-rendering:optimizeQuality; fill-rule:evenodd; clip-rule:evenodd"
viewBox="0 0 9646 1225"
 xmlns:xlink="http://www.w3.org/1999/xlink">
 <defs>
  <style type="text/css">
   <![CDATA[
    .fil0 {fill:#1E1A16;fill-rule:nonzero}
   ]]>
  </style>
 </defs>
 <g id="Layer_x0020_1">
  <metadata id="CorelCorpID_0Corel-Layer"/>
  <path class="fil0" d="M319 52l-319 0 0 931 342 0c46,0 81,0 122,-4 138,-14 263,-88 263,-251 0,-126 -63,-201 -193,-227 100,-33 153,-111 153,-209 0,-135 -89,-219 -251,-236 -46,-4 -74,-4 -117,-4zm-135 772l0 -234 164 0c119,0 186,32 186,119 0,79 -69,115 -169,115l-181 0zm0 -387l0 -225 153 0c102,0 160,34 160,114 0,87 -79,111 -164,111l-149 0z"/>
  <path id="1" class="fil0" d="M1159 292c-229,0 -335,139 -335,358 0,232 112,351 329,351 174,0 284,-82 308,-223l-177 0c-18,50 -57,76 -128,76 -84,0 -135,-39 -146,-153l460 0c1,-21 3,-47 3,-66 0,-199 -93,-343 -314,-343zm-148 282c12,-101 60,-137 140,-137 77,0 128,39 138,137l-278 0z"/>
  <path id="2" class="fil0" d="M1965 292c-102,0 -176,42 -189,147l-7 -129 -167 0 0 673 182 0 0 -292c0,-190 74,-264 236,-247l0 -148c-16,-4 -31,-4 -55,-4z"/>
  <polygon id="3" class="fil0" points="2754,310 2558,310 2286,613 2286,52 2104,52 2104,983 2286,983 2286,771 2372,686 2550,983 2768,983 2516,571 "/>
  <path id="4" class="fil0" d="M2975 645c0,-152 58,-206 158,-206 98,0 155,54 155,206 0,154 -57,208 -155,208 -100,0 -158,-54 -158,-208zm-190 0c0,231 121,356 348,356 226,0 347,-125 347,-356 0,-229 -120,-353 -347,-353 -227,0 -348,124 -348,353z"/>
  <path id="5" class="fil0" d="M3983 292c-99,0 -196,17 -220,111l-6 -93 -168 0 0 673 183 0 0 -363c0,-120 39,-178 127,-178 97,0 112,67 112,164l0 377 183 0 0 -362c0,-120 41,-179 129,-179 96,0 112,68 112,165l0 376 182 0 0 -403c0,-44 -1,-78 -6,-112 -14,-102 -86,-176 -227,-176 -86,0 -188,17 -213,111 -28,-66 -88,-111 -188,-111z"/>
  <path id="6" class="fil0" d="M4947 1225l0 -325c39,81 120,101 206,101 192,0 303,-124 303,-357 0,-216 -89,-352 -293,-352 -102,0 -189,25 -221,128l-10 -110 -167 0 0 915 182 0zm0 -561l0 -24c0,-149 65,-201 155,-201 109,0 155,84 155,204 0,134 -51,210 -159,210 -74,0 -151,-42 -151,-189z"/>
  <path id="7" class="fil0" d="M5882 292c-230,0 -335,139 -335,358 0,232 112,351 329,351 174,0 284,-82 308,-223l-177 0c-18,50 -57,76 -128,76 -84,0 -135,-39 -146,-153l460 0c1,-21 3,-47 3,-66 0,-199 -93,-343 -314,-343zm-148 282c12,-101 60,-137 140,-137 77,0 128,39 138,137l-278 0z"/>
  <path id="8" class="fil0" d="M6546 750l0 -295 151 0 0 -144 -151 0 0 -196 -183 0 0 196 -97 0 0 144 97 0 0 300c0,38 0,65 2,102 8,87 51,141 186,141 60,0 96,-3 138,-9l0 -137c-121,6 -143,-3 -143,-102z"/>
  <path id="9" class="fil0" d="M7103 292c-229,0 -335,139 -335,358 0,232 112,351 329,351 175,0 284,-82 309,-223l-178 0c-17,50 -57,76 -127,76 -84,0 -135,-39 -147,-153l461 0c1,-21 2,-47 2,-66 0,-199 -93,-343 -314,-343zm-147 282c11,-101 60,-137 140,-137 76,0 127,39 138,137l-278 0z"/>
  <path id="10" class="fil0" d="M7921 292c-111,0 -190,28 -212,128l-8 -110 -167 0 0 673 183 0 0 -357c0,-127 58,-185 141,-182 101,0 125,57 125,146l0 393 183 0 0 -390c0,-55 -2,-87 -5,-121 -17,-124 -99,-180 -240,-180z"/>
  <path id="11" class="fil0" d="M8410 1001c67,0 119,-54 119,-119 0,-65 -52,-118 -119,-118 -65,0 -117,53 -117,118 0,65 52,119 117,119z"/>
  <path id="12" class="fil0" d="M8839 310l-182 0 0 673 182 0 0 -673zm-191 -211c0,57 44,100 99,100 56,0 101,-43 101,-100 0,-54 -45,-99 -101,-99 -55,0 -99,45 -99,99z"/>
  <path id="13" class="fil0" d="M9646 52l-182 0 0 341c-39,-81 -120,-101 -206,-101 -192,0 -303,122 -303,357 0,216 89,352 293,352 102,0 187,-26 219,-126l12 108 167 0 0 -931zm-492 598c0,-134 51,-211 159,-211 74,0 151,43 151,190l0 24c0,149 -64,200 -155,200 -109,0 -155,-84 -155,-203z"/>
 </g>
</svg>
